<svg xmlns="http://www.w3.org/2000/svg" xmlns:xlink="http://www.w3.org/1999/xlink" width="500" zoomAndPan="magnify" viewBox="0 0 375 374.999991" height="500" preserveAspectRatio="xMidYMid meet" version="1.0"><defs><g/><clipPath id="88ca0600a5"><path d="M 126.78125 117 L 248.230469 117 L 248.230469 206.925781 L 126.78125 206.925781 Z M 126.78125 117 " clip-rule="nonzero"/></clipPath><clipPath id="66fac69015"><path d="M 138 103.425781 L 237 103.425781 L 237 178 L 138 178 Z M 138 103.425781 " clip-rule="nonzero"/></clipPath></defs><g clip-path="url(#88ca0600a5)"><path fill="#289970" d="M 248.230469 119.277344 L 248.230469 191.074219 L 200.746094 191.074219 L 187.457031 206.867188 L 174.1875 191.074219 L 126.730469 191.074219 L 126.730469 117.578125 L 141.625 117.578125 L 141.625 176.203125 L 181.136719 176.203125 L 187.457031 183.710938 L 193.824219 176.203125 L 233.335938 176.203125 L 233.335938 117.578125 L 248.230469 117.578125 Z M 244.804688 187.671875 L 244.804688 120.980469 L 236.734375 120.980469 L 236.734375 179.605469 L 195.378906 179.605469 L 187.457031 189.058594 L 179.535156 179.605469 L 138.175781 179.605469 L 138.175781 120.980469 L 130.15625 120.980469 L 130.15625 187.648438 L 175.816406 187.648438 L 187.480469 201.519531 L 199.167969 187.648438 L 244.804688 187.648438 Z M 244.804688 187.671875 " fill-opacity="1" fill-rule="nonzero"/></g><g clip-path="url(#66fac69015)"><path fill="#289970" d="M 138.175781 177.90625 L 138.175781 103.484375 C 152.511719 103.484375 166.824219 103.484375 181.136719 103.484375 L 187.457031 111.042969 L 193.824219 103.484375 C 208.136719 103.484375 222.449219 103.484375 236.761719 103.484375 L 236.761719 177.90625 L 233.335938 177.90625 L 233.335938 106.9375 L 195.378906 106.9375 L 187.457031 116.339844 L 179.535156 106.9375 L 141.625 106.9375 L 141.625 177.90625 Z M 138.175781 177.90625 " fill-opacity="1" fill-rule="nonzero"/></g><path fill="#289970" d="M 154.722656 176.761719 L 187.457031 138.933594 L 220.238281 176.761719 L 217.636719 179.023438 L 187.457031 144.15625 L 157.324219 179.023438 Z M 154.722656 176.761719 " fill-opacity="1" fill-rule="nonzero"/><path fill="#289970" d="M 138.613281 160.21875 L 157.03125 138.933594 L 173.554688 158.03125 L 170.980469 160.242188 L 157.03125 144.15625 L 141.1875 162.476562 Z M 138.613281 160.21875 " fill-opacity="1" fill-rule="nonzero"/><path fill="#289970" d="M 232.679688 162.476562 L 216.859375 144.15625 L 202.910156 160.242188 L 200.308594 158.03125 L 216.859375 138.933594 L 235.253906 160.21875 Z M 232.679688 162.476562 " fill-opacity="1" fill-rule="nonzero"/><path fill="#289970" d="M 181.867188 160.167969 L 186.554688 160.167969 L 186.554688 164.859375 L 181.867188 164.859375 Z M 188.402344 160.167969 L 193.09375 160.167969 L 193.09375 164.859375 L 188.402344 164.859375 Z M 193.09375 166.703125 L 193.09375 171.394531 L 188.402344 171.394531 L 188.402344 166.703125 Z M 186.554688 171.394531 L 181.867188 171.394531 L 181.867188 166.703125 L 186.554688 166.703125 Z M 186.554688 171.394531 " fill-opacity="1" fill-rule="nonzero"/><path fill="#289970" d="M 185.753906 120.273438 L 189.179688 120.273438 L 189.179688 141.558594 L 185.753906 141.558594 Z M 185.753906 120.273438 " fill-opacity="1" fill-rule="nonzero"/><path fill="#289970" d="M 179.167969 125.0625 L 195.742188 125.0625 L 195.742188 128.460938 L 179.167969 128.460938 Z M 179.167969 125.0625 " fill-opacity="1" fill-rule="nonzero"/><g fill="#202020" fill-opacity="1"><g transform="translate(91.227317, 238.970682)"><g><path d="M 0.488281 0 L 10.554688 0 L 10.554688 -0.164062 C 9.21875 -0.324219 8.078125 -0.683594 8.078125 -1.855469 L 8.078125 -20.945312 C 8.078125 -22.117188 9.21875 -22.476562 10.554688 -22.636719 L 10.554688 -22.800781 L 0.488281 -22.800781 L 0.488281 -22.636719 C 1.824219 -22.476562 2.964844 -22.117188 2.964844 -20.945312 L 2.964844 -1.855469 C 2.964844 -0.683594 1.824219 -0.324219 0.488281 -0.164062 Z M 0.488281 0 "/></g></g></g><g fill="#202020" fill-opacity="1"><g transform="translate(102.593081, 238.970682)"><g><path d="M 17.914062 -22.800781 L 17.914062 -22.636719 C 19.25 -22.476562 20.390625 -21.464844 20.390625 -17.035156 L 20.390625 -7.492188 L 8.339844 -21.660156 C 8.011719 -22.28125 7.65625 -22.507812 7.492188 -22.800781 L 0.324219 -22.800781 C 1.367188 -22.28125 2.183594 -21.53125 3.289062 -20.226562 L 3.289062 -5.113281 C 3.289062 -0.683594 2.148438 -0.324219 0.8125 -0.164062 L 0.8125 0 L 6.417969 0 L 6.417969 -0.164062 C 5.082031 -0.324219 3.941406 -1.335938 3.941406 -5.765625 L 3.941406 -19.445312 L 21.074219 0.910156 L 21.140625 0.847656 C 21.074219 -0.324219 20.976562 -2.019531 20.976562 -5.40625 L 20.976562 -17.6875 C 20.976562 -22.117188 22.117188 -22.476562 23.453125 -22.636719 L 23.453125 -22.800781 Z M 17.914062 -22.800781 "/></g></g></g><g fill="#202020" fill-opacity="1"><g transform="translate(126.85518, 238.970682)"><g><path d="M 11.628906 -13.972656 C 8.207031 -14.753906 5.40625 -15.699219 5.40625 -18.957031 C 5.40625 -20.554688 6.058594 -22.800781 9.152344 -22.800781 C 12.703125 -22.800781 16.515625 -19.933594 15.894531 -15.4375 L 19.085938 -20.292969 C 17.359375 -21.953125 14.527344 -23.257812 10.714844 -23.257812 C 5.40625 -23.257812 1.855469 -20.78125 1.855469 -16.644531 C 1.855469 -13.746094 3.679688 -10.324219 10.097656 -8.859375 C 13.972656 -7.949219 15.992188 -7.164062 15.992188 -4.496094 C 15.992188 -2.996094 15.339844 -0.03125 11.5 -0.03125 C 7.914062 -0.03125 4.007812 -2.929688 4.398438 -7.492188 L 1.304688 -2.605469 C 3.0625 -0.910156 6.253906 0.457031 10.261719 0.457031 C 15.992188 0.457031 19.476562 -2.574219 19.476562 -6.710938 C 19.476562 -9.183594 18.144531 -12.476562 11.628906 -13.972656 Z M 11.628906 -13.972656 "/></g></g></g><g fill="#202020" fill-opacity="1"><g transform="translate(147.95833, 238.970682)"><g><path d="M 23.0625 -22.800781 L 1.402344 -22.800781 L 0.324219 -16.089844 L 0.457031 -16.089844 C 2.28125 -20.324219 4.429688 -22.148438 8.957031 -22.3125 L 8.957031 -2.183594 C 8.957031 -0.683594 7.816406 -0.324219 5.832031 -0.164062 L 5.832031 0 L 17.199219 0 L 17.199219 -0.164062 C 15.210938 -0.324219 14.070312 -0.683594 14.070312 -2.183594 L 14.070312 -22.3125 L 14.65625 -22.3125 C 18.46875 -22.3125 21.269531 -20.519531 20.847656 -16.089844 L 20.976562 -16.089844 Z M 23.0625 -22.800781 "/></g></g></g><g fill="#202020" fill-opacity="1"><g transform="translate(171.666796, 238.970682)"><g><path d="M 0.488281 0 L 10.554688 0 L 10.554688 -0.164062 C 9.21875 -0.324219 8.078125 -0.683594 8.078125 -1.855469 L 8.078125 -20.945312 C 8.078125 -22.117188 9.21875 -22.476562 10.554688 -22.636719 L 10.554688 -22.800781 L 0.488281 -22.800781 L 0.488281 -22.636719 C 1.824219 -22.476562 2.964844 -22.117188 2.964844 -20.945312 L 2.964844 -1.855469 C 2.964844 -0.683594 1.824219 -0.324219 0.488281 -0.164062 Z M 0.488281 0 "/></g></g></g><g fill="#202020" fill-opacity="1"><g transform="translate(183.032558, 238.970682)"><g><path d="M 23.0625 -22.800781 L 1.402344 -22.800781 L 0.324219 -16.089844 L 0.457031 -16.089844 C 2.28125 -20.324219 4.429688 -22.148438 8.957031 -22.3125 L 8.957031 -2.183594 C 8.957031 -0.683594 7.816406 -0.324219 5.832031 -0.164062 L 5.832031 0 L 17.199219 0 L 17.199219 -0.164062 C 15.210938 -0.324219 14.070312 -0.683594 14.070312 -2.183594 L 14.070312 -22.3125 L 14.65625 -22.3125 C 18.46875 -22.3125 21.269531 -20.519531 20.847656 -16.089844 L 20.976562 -16.089844 Z M 23.0625 -22.800781 "/></g></g></g><g fill="#202020" fill-opacity="1"><g transform="translate(206.74103, 238.970682)"><g><path d="M 12.769531 0.457031 C 17.980469 0.457031 21.660156 -2.867188 21.660156 -8.695312 L 21.660156 -18.632812 C 21.660156 -22.183594 22.800781 -22.539062 24.136719 -22.703125 L 24.136719 -22.867188 L 18.175781 -22.867188 L 18.175781 -22.703125 C 19.835938 -22.539062 20.976562 -21.53125 20.976562 -17.980469 L 20.976562 -8.402344 C 20.976562 -3.027344 17.199219 -0.8125 13.972656 -0.8125 C 11.464844 -0.8125 8.078125 -2.117188 8.078125 -8.339844 L 8.078125 -20.945312 C 8.078125 -22.117188 9.21875 -22.476562 10.554688 -22.636719 L 10.554688 -22.800781 L 0.488281 -22.800781 L 0.488281 -22.636719 C 1.824219 -22.476562 2.964844 -22.117188 2.964844 -20.945312 L 2.964844 -8.632812 C 2.964844 -1.140625 9.085938 0.457031 12.769531 0.457031 Z M 12.769531 0.457031 "/></g></g></g><g fill="#202020" fill-opacity="1"><g transform="translate(231.687031, 238.970682)"><g><path d="M 23.0625 -22.800781 L 1.402344 -22.800781 L 0.324219 -16.089844 L 0.457031 -16.089844 C 2.28125 -20.324219 4.429688 -22.148438 8.957031 -22.3125 L 8.957031 -2.183594 C 8.957031 -0.683594 7.816406 -0.324219 5.832031 -0.164062 L 5.832031 0 L 17.199219 0 L 17.199219 -0.164062 C 15.210938 -0.324219 14.070312 -0.683594 14.070312 -2.183594 L 14.070312 -22.3125 L 14.65625 -22.3125 C 18.46875 -22.3125 21.269531 -20.519531 20.847656 -16.089844 L 20.976562 -16.089844 Z M 23.0625 -22.800781 "/></g></g></g><g fill="#202020" fill-opacity="1"><g transform="translate(255.395503, 238.970682)"><g><path d="M 14.203125 -23.257812 C 6.9375 -23.257812 1.464844 -18.730469 1.464844 -11.398438 C 1.464844 -4.070312 6.9375 0.457031 14.203125 0.457031 C 21.433594 0.457031 26.90625 -4.070312 26.90625 -11.398438 C 26.90625 -18.730469 21.433594 -23.257812 14.203125 -23.257812 Z M 15.601562 -0.128906 C 10.457031 -0.128906 6.871094 -7.230469 6.871094 -13.714844 C 6.871094 -19.054688 9.183594 -22.671875 12.769531 -22.671875 C 17.914062 -22.671875 21.496094 -15.570312 21.496094 -9.121094 C 21.496094 -3.777344 19.183594 -0.128906 15.601562 -0.128906 Z M 15.601562 -0.128906 "/></g></g></g><g fill="#202020" fill-opacity="1"><g transform="translate(108.026335, 256.994593)"><g><path d="M 1.171875 -8.96875 L 5.078125 -8.96875 C 6.003906 -8.96875 6.734375 -8.769531 7.265625 -8.375 C 7.804688 -7.976562 8.078125 -7.429688 8.078125 -6.734375 C 8.078125 -6.222656 7.9375 -5.789062 7.65625 -5.4375 C 7.375 -5.082031 6.992188 -4.847656 6.515625 -4.734375 C 7.109375 -4.628906 7.578125 -4.375 7.921875 -3.96875 C 8.265625 -3.570312 8.4375 -3.066406 8.4375 -2.453125 C 8.4375 -1.691406 8.144531 -1.09375 7.5625 -0.65625 C 6.976562 -0.21875 6.175781 0 5.15625 0 L 1.171875 0 Z M 2.6875 -7.625 L 2.6875 -5.25 L 5 -5.25 C 5.476562 -5.25 5.851562 -5.351562 6.125 -5.5625 C 6.394531 -5.78125 6.53125 -6.078125 6.53125 -6.453125 C 6.53125 -6.828125 6.394531 -7.113281 6.125 -7.3125 C 5.863281 -7.519531 5.488281 -7.625 5 -7.625 Z M 2.6875 -3.921875 L 2.6875 -1.34375 L 5 -1.34375 C 5.59375 -1.34375 6.050781 -1.457031 6.375 -1.6875 C 6.707031 -1.914062 6.875 -2.238281 6.875 -2.65625 C 6.875 -3.039062 6.707031 -3.347656 6.375 -3.578125 C 6.039062 -3.804688 5.582031 -3.921875 5 -3.921875 Z M 2.6875 -3.921875 "/></g></g></g><g fill="#202020" fill-opacity="1"><g transform="translate(118.788821, 256.994593)"><g><path d="M 2.6875 0 L 1.171875 0 L 1.171875 -8.96875 L 2.6875 -8.96875 Z M 2.6875 0 "/></g></g></g><g fill="#202020" fill-opacity="1"><g transform="translate(124.375073, 256.994593)"><g><path d="M 1.171875 -8.96875 L 5.078125 -8.96875 C 6.003906 -8.96875 6.734375 -8.769531 7.265625 -8.375 C 7.804688 -7.976562 8.078125 -7.429688 8.078125 -6.734375 C 8.078125 -6.222656 7.9375 -5.789062 7.65625 -5.4375 C 7.375 -5.082031 6.992188 -4.847656 6.515625 -4.734375 C 7.109375 -4.628906 7.578125 -4.375 7.921875 -3.96875 C 8.265625 -3.570312 8.4375 -3.066406 8.4375 -2.453125 C 8.4375 -1.691406 8.144531 -1.09375 7.5625 -0.65625 C 6.976562 -0.21875 6.175781 0 5.15625 0 L 1.171875 0 Z M 2.6875 -7.625 L 2.6875 -5.25 L 5 -5.25 C 5.476562 -5.25 5.851562 -5.351562 6.125 -5.5625 C 6.394531 -5.78125 6.53125 -6.078125 6.53125 -6.453125 C 6.53125 -6.828125 6.394531 -7.113281 6.125 -7.3125 C 5.863281 -7.519531 5.488281 -7.625 5 -7.625 Z M 2.6875 -3.921875 L 2.6875 -1.34375 L 5 -1.34375 C 5.59375 -1.34375 6.050781 -1.457031 6.375 -1.6875 C 6.707031 -1.914062 6.875 -2.238281 6.875 -2.65625 C 6.875 -3.039062 6.707031 -3.347656 6.375 -3.578125 C 6.039062 -3.804688 5.582031 -3.921875 5 -3.921875 Z M 2.6875 -3.921875 "/></g></g></g><g fill="#202020" fill-opacity="1"><g transform="translate(135.13756, 256.994593)"><g><path d="M 2.6875 -1.375 L 6.578125 -1.375 L 6.578125 0 L 1.171875 0 L 1.171875 -8.96875 L 2.6875 -8.96875 Z M 2.6875 -1.375 "/></g></g></g><g fill="#202020" fill-opacity="1"><g transform="translate(143.696305, 256.994593)"><g><path d="M 2.6875 0 L 1.171875 0 L 1.171875 -8.96875 L 2.6875 -8.96875 Z M 2.6875 0 "/></g></g></g><g fill="#202020" fill-opacity="1"><g transform="translate(149.282556, 256.994593)"><g><path d="M 5.15625 -9 C 5.78125 -9 6.394531 -8.878906 7 -8.640625 C 7.601562 -8.398438 8.125 -8.0625 8.5625 -7.625 L 7.671875 -6.515625 C 7.347656 -6.867188 6.960938 -7.144531 6.515625 -7.34375 C 6.078125 -7.550781 5.628906 -7.65625 5.171875 -7.65625 C 4.273438 -7.65625 3.515625 -7.347656 2.890625 -6.734375 C 2.273438 -6.128906 1.96875 -5.390625 1.96875 -4.515625 C 1.96875 -3.617188 2.273438 -2.863281 2.890625 -2.25 C 3.515625 -1.644531 4.273438 -1.34375 5.171875 -1.34375 C 6.109375 -1.34375 6.941406 -1.695312 7.671875 -2.40625 L 8.578125 -1.40625 C 8.109375 -0.957031 7.566406 -0.597656 6.953125 -0.328125 C 6.335938 -0.0664062 5.71875 0.0625 5.09375 0.0625 C 3.78125 0.0625 2.675781 -0.375 1.78125 -1.25 C 0.882812 -2.125 0.4375 -3.207031 0.4375 -4.5 C 0.4375 -5.769531 0.890625 -6.835938 1.796875 -7.703125 C 2.710938 -8.566406 3.832031 -9 5.15625 -9 Z M 5.15625 -9 "/></g></g></g><g fill="#202020" fill-opacity="1"><g transform="translate(159.929734, 256.994593)"><g><path d="M 1.796875 -7.703125 C 2.710938 -8.566406 3.84375 -9 5.1875 -9 C 6.53125 -9 7.65625 -8.566406 8.5625 -7.703125 C 9.476562 -6.835938 9.9375 -5.765625 9.9375 -4.484375 C 9.9375 -3.203125 9.476562 -2.125 8.5625 -1.25 C 7.65625 -0.375 6.53125 0.0625 5.1875 0.0625 C 3.84375 0.0625 2.710938 -0.375 1.796875 -1.25 C 0.890625 -2.125 0.4375 -3.203125 0.4375 -4.484375 C 0.4375 -5.765625 0.890625 -6.835938 1.796875 -7.703125 Z M 5.203125 -7.65625 C 4.316406 -7.65625 3.554688 -7.347656 2.921875 -6.734375 C 2.285156 -6.117188 1.96875 -5.367188 1.96875 -4.484375 C 1.96875 -3.597656 2.285156 -2.84375 2.921875 -2.21875 C 3.554688 -1.601562 4.3125 -1.296875 5.1875 -1.296875 C 6.070312 -1.296875 6.828125 -1.601562 7.453125 -2.21875 C 8.078125 -2.84375 8.390625 -3.597656 8.390625 -4.484375 C 8.390625 -5.367188 8.078125 -6.117188 7.453125 -6.734375 C 6.828125 -7.347656 6.078125 -7.65625 5.203125 -7.65625 Z M 5.203125 -7.65625 "/></g></g></g><g fill="#202020" fill-opacity="1"><g transform="translate(172.024716, 256.994593)"><g/></g></g><g fill="#202020" fill-opacity="1"><g transform="translate(177.047211, 256.994593)"><g><path d="M 7.296875 -7.609375 L 4.453125 -7.609375 L 4.453125 0 L 2.953125 0 L 2.953125 -7.609375 L 0.109375 -7.609375 L 0.109375 -8.96875 L 7.296875 -8.96875 Z M 7.296875 -7.609375 "/></g></g></g><g fill="#202020" fill-opacity="1"><g transform="translate(186.182517, 256.994593)"><g><path d="M 7.578125 -7.609375 L 2.6875 -7.609375 L 2.6875 -5.1875 L 7.078125 -5.1875 L 7.078125 -3.828125 L 2.6875 -3.828125 L 2.6875 -1.359375 L 7.734375 -1.359375 L 7.734375 0 L 1.171875 0 L 1.171875 -8.96875 L 7.578125 -8.96875 Z M 7.578125 -7.609375 "/></g></g></g><g fill="#202020" fill-opacity="1"><g transform="translate(196.304377, 256.994593)"><g><path d="M 1.796875 -7.703125 C 2.710938 -8.566406 3.84375 -9 5.1875 -9 C 6.53125 -9 7.65625 -8.566406 8.5625 -7.703125 C 9.476562 -6.835938 9.9375 -5.765625 9.9375 -4.484375 C 9.9375 -3.203125 9.476562 -2.125 8.5625 -1.25 C 7.65625 -0.375 6.53125 0.0625 5.1875 0.0625 C 3.84375 0.0625 2.710938 -0.375 1.796875 -1.25 C 0.890625 -2.125 0.4375 -3.203125 0.4375 -4.484375 C 0.4375 -5.765625 0.890625 -6.835938 1.796875 -7.703125 Z M 5.203125 -7.65625 C 4.316406 -7.65625 3.554688 -7.347656 2.921875 -6.734375 C 2.285156 -6.117188 1.96875 -5.367188 1.96875 -4.484375 C 1.96875 -3.597656 2.285156 -2.84375 2.921875 -2.21875 C 3.554688 -1.601562 4.3125 -1.296875 5.1875 -1.296875 C 6.070312 -1.296875 6.828125 -1.601562 7.453125 -2.21875 C 8.078125 -2.84375 8.390625 -3.597656 8.390625 -4.484375 C 8.390625 -5.367188 8.078125 -6.117188 7.453125 -6.734375 C 6.828125 -7.347656 6.078125 -7.65625 5.203125 -7.65625 Z M 5.203125 -7.65625 "/></g></g></g><g fill="#202020" fill-opacity="1"><g transform="translate(208.399359, 256.994593)"><g><path d="M 2.6875 -1.375 L 6.578125 -1.375 L 6.578125 0 L 1.171875 0 L 1.171875 -8.96875 L 2.6875 -8.96875 Z M 2.6875 -1.375 "/></g></g></g><g fill="#202020" fill-opacity="1"><g transform="translate(216.958109, 256.994593)"><g><path d="M 7.140625 -11.203125 L 5.578125 -9.9375 L 4.265625 -9.9375 L 5.625 -11.84375 Z M 1.796875 -7.703125 C 2.710938 -8.566406 3.84375 -9 5.1875 -9 C 6.53125 -9 7.65625 -8.566406 8.5625 -7.703125 C 9.476562 -6.835938 9.9375 -5.765625 9.9375 -4.484375 C 9.9375 -3.203125 9.476562 -2.125 8.5625 -1.25 C 7.65625 -0.375 6.53125 0.0625 5.1875 0.0625 C 3.84375 0.0625 2.710938 -0.375 1.796875 -1.25 C 0.890625 -2.125 0.4375 -3.203125 0.4375 -4.484375 C 0.4375 -5.765625 0.890625 -6.835938 1.796875 -7.703125 Z M 5.203125 -7.65625 C 4.316406 -7.65625 3.554688 -7.347656 2.921875 -6.734375 C 2.285156 -6.117188 1.96875 -5.367188 1.96875 -4.484375 C 1.96875 -3.597656 2.285156 -2.84375 2.921875 -2.21875 C 3.554688 -1.601562 4.3125 -1.296875 5.1875 -1.296875 C 6.070312 -1.296875 6.828125 -1.601562 7.453125 -2.21875 C 8.078125 -2.84375 8.390625 -3.597656 8.390625 -4.484375 C 8.390625 -5.367188 8.078125 -6.117188 7.453125 -6.734375 C 6.828125 -7.347656 6.078125 -7.65625 5.203125 -7.65625 Z M 5.203125 -7.65625 "/></g></g></g><g fill="#202020" fill-opacity="1"><g transform="translate(229.053091, 256.994593)"><g><path d="M 7.3125 -4.40625 L 8.640625 -4.40625 L 8.640625 -1.109375 C 8.171875 -0.753906 7.625 -0.46875 7 -0.25 C 6.375 -0.0390625 5.757812 0.0625 5.15625 0.0625 C 3.832031 0.0625 2.710938 -0.375 1.796875 -1.25 C 0.890625 -2.125 0.4375 -3.203125 0.4375 -4.484375 C 0.4375 -5.765625 0.894531 -6.835938 1.8125 -7.703125 C 2.738281 -8.566406 3.878906 -9 5.234375 -9 C 5.867188 -9 6.488281 -8.882812 7.09375 -8.65625 C 7.707031 -8.4375 8.238281 -8.132812 8.6875 -7.75 L 7.828125 -6.640625 C 7.097656 -7.316406 6.234375 -7.65625 5.234375 -7.65625 C 4.328125 -7.65625 3.554688 -7.347656 2.921875 -6.734375 C 2.285156 -6.117188 1.96875 -5.367188 1.96875 -4.484375 C 1.96875 -3.585938 2.285156 -2.832031 2.921875 -2.21875 C 3.554688 -1.601562 4.332031 -1.296875 5.25 -1.296875 C 5.945312 -1.296875 6.632812 -1.5 7.3125 -1.90625 Z M 7.3125 -4.40625 "/></g></g></g><g fill="#202020" fill-opacity="1"><g transform="translate(240.366514, 256.994593)"><g><path d="M 2.6875 0 L 1.171875 0 L 1.171875 -8.96875 L 2.6875 -8.96875 Z M 2.6875 0 "/></g></g></g><g fill="#202020" fill-opacity="1"><g transform="translate(245.952765, 256.994593)"><g><path d="M 5.15625 -9 C 5.78125 -9 6.394531 -8.878906 7 -8.640625 C 7.601562 -8.398438 8.125 -8.0625 8.5625 -7.625 L 7.671875 -6.515625 C 7.347656 -6.867188 6.960938 -7.144531 6.515625 -7.34375 C 6.078125 -7.550781 5.628906 -7.65625 5.171875 -7.65625 C 4.273438 -7.65625 3.515625 -7.347656 2.890625 -6.734375 C 2.273438 -6.128906 1.96875 -5.390625 1.96875 -4.515625 C 1.96875 -3.617188 2.273438 -2.863281 2.890625 -2.25 C 3.515625 -1.644531 4.273438 -1.34375 5.171875 -1.34375 C 6.109375 -1.34375 6.941406 -1.695312 7.671875 -2.40625 L 8.578125 -1.40625 C 8.109375 -0.957031 7.566406 -0.597656 6.953125 -0.328125 C 6.335938 -0.0664062 5.71875 0.0625 5.09375 0.0625 C 3.78125 0.0625 2.675781 -0.375 1.78125 -1.25 C 0.882812 -2.125 0.4375 -3.207031 0.4375 -4.5 C 0.4375 -5.769531 0.890625 -6.835938 1.796875 -7.703125 C 2.710938 -8.566406 3.832031 -9 5.15625 -9 Z M 5.15625 -9 "/></g></g></g><g fill="#202020" fill-opacity="1"><g transform="translate(256.599941, 256.994593)"><g><path d="M 1.796875 -7.703125 C 2.710938 -8.566406 3.84375 -9 5.1875 -9 C 6.53125 -9 7.65625 -8.566406 8.5625 -7.703125 C 9.476562 -6.835938 9.9375 -5.765625 9.9375 -4.484375 C 9.9375 -3.203125 9.476562 -2.125 8.5625 -1.25 C 7.65625 -0.375 6.53125 0.0625 5.1875 0.0625 C 3.84375 0.0625 2.710938 -0.375 1.796875 -1.25 C 0.890625 -2.125 0.4375 -3.203125 0.4375 -4.484375 C 0.4375 -5.765625 0.890625 -6.835938 1.796875 -7.703125 Z M 5.203125 -7.65625 C 4.316406 -7.65625 3.554688 -7.347656 2.921875 -6.734375 C 2.285156 -6.117188 1.96875 -5.367188 1.96875 -4.484375 C 1.96875 -3.597656 2.285156 -2.84375 2.921875 -2.21875 C 3.554688 -1.601562 4.3125 -1.296875 5.1875 -1.296875 C 6.070312 -1.296875 6.828125 -1.601562 7.453125 -2.21875 C 8.078125 -2.84375 8.390625 -3.597656 8.390625 -4.484375 C 8.390625 -5.367188 8.078125 -6.117188 7.453125 -6.734375 C 6.828125 -7.347656 6.078125 -7.65625 5.203125 -7.65625 Z M 5.203125 -7.65625 "/></g></g></g></svg>